<svg width="145" height="145" viewBox="0 0 145 145" fill="none" xmlns="http://www.w3.org/2000/svg">
<path fill-rule="evenodd" clip-rule="evenodd" d="M0 72.5C0 112.541 32.4594 145 72.5 145C112.541 145 145 112.541 145 72.5C145 32.4594 112.541 0 72.5 0C32.4594 0 0 32.4594 0 72.5ZM131.818 72.5C131.818 105.261 105.261 131.818 72.5 131.818C39.7395 131.818 13.1818 105.261 13.1818 72.5C13.1818 39.7395 39.7395 13.1818 72.5 13.1818C105.261 13.1818 131.818 39.7395 131.818 72.5ZM65.9091 46.1364V59.3182H79.0909V46.1364C79.0909 42.4963 76.1401 39.5455 72.5 39.5455C68.8599 39.5455 65.9091 42.4963 65.9091 46.1364ZM92.2727 59.3182V46.1364C92.2727 35.2162 83.4202 26.3636 72.5 26.3636C61.5798 26.3636 52.7273 35.2162 52.7273 46.1364V59.3182C45.4472 59.3182 39.5455 65.2199 39.5455 72.5V98.8636C39.5455 106.144 45.4472 112.045 52.7273 112.045H92.2728C99.5529 112.045 105.455 106.144 105.455 98.8636V72.5C105.455 65.2199 99.5529 59.3182 92.2727 59.3182ZM52.7273 72.5V98.8636H92.2727V72.5H52.7273ZM65.9091 85.6819C65.9091 89.3219 68.8599 92.2728 72.5 92.2728C76.1401 92.2728 79.0909 89.3219 79.0909 85.6819C79.0909 82.0418 76.1401 79.091 72.5 79.091C68.8599 79.091 65.9091 82.0418 65.9091 85.6819Z" fill="#CFCFCF"/>
</svg>
